<mxfile host="app.diagrams.net" modified="2022-06-11T21:25:09.716Z" agent="5.0 (X11)" etag="pcbB5sWsni5cy3N1Kjrh" version="19.0.3" type="github">
  <diagram name="Page-1" id="9361dd3d-8414-5efd-6122-117bd74ce7a7">
    <mxGraphModel dx="2513" dy="490" grid="1" gridSize="10" guides="1" tooltips="1" connect="1" arrows="1" fold="1" page="1" pageScale="1.5" pageWidth="200" pageHeight="200" background="none" math="0" shadow="0">
      <root>
        <mxCell id="0" />
        <mxCell id="1" parent="0" />
        <mxCell id="wgKTrTO6_7ycH0h-UZkH-89" value="Animals&#xa;        &#xa;" style="swimlane;fontStyle=1;align=center;verticalAlign=top;childLayout=stackLayout;horizontal=1;startSize=26;horizontalStack=0;resizeParent=1;resizeParentMax=0;resizeLast=0;collapsible=1;marginBottom=0;sketch=1;fontSize=12;" vertex="1" parent="1">
          <mxGeometry x="120" y="494" width="160" height="160" as="geometry" />
        </mxCell>
        <mxCell id="wgKTrTO6_7ycH0h-UZkH-90" value="+ name: string&#xa;+ weight: int&#xa;+ age: int&#xa;&#xa;" style="text;strokeColor=none;fillColor=none;align=left;verticalAlign=top;spacingLeft=4;spacingRight=4;overflow=hidden;rotatable=0;points=[[0,0.5],[1,0.5]];portConstraint=eastwest;sketch=1;fontSize=12;" vertex="1" parent="wgKTrTO6_7ycH0h-UZkH-89">
          <mxGeometry y="26" width="160" height="64" as="geometry" />
        </mxCell>
        <mxCell id="wgKTrTO6_7ycH0h-UZkH-91" value="" style="line;strokeWidth=1;fillColor=none;align=left;verticalAlign=middle;spacingTop=-1;spacingLeft=3;spacingRight=3;rotatable=0;labelPosition=right;points=[];portConstraint=eastwest;sketch=1;fontSize=12;" vertex="1" parent="wgKTrTO6_7ycH0h-UZkH-89">
          <mxGeometry y="90" width="160" height="8" as="geometry" />
        </mxCell>
        <mxCell id="wgKTrTO6_7ycH0h-UZkH-92" value="+ GetDosage(): int&#xa;+ GetFeedSchedule(): int" style="text;strokeColor=none;fillColor=none;align=left;verticalAlign=top;spacingLeft=4;spacingRight=4;overflow=hidden;rotatable=0;points=[[0,0.5],[1,0.5]];portConstraint=eastwest;sketch=1;fontSize=12;" vertex="1" parent="wgKTrTO6_7ycH0h-UZkH-89">
          <mxGeometry y="98" width="160" height="62" as="geometry" />
        </mxCell>
        <mxCell id="wgKTrTO6_7ycH0h-UZkH-93" value="Equus" style="swimlane;fontStyle=1;align=center;verticalAlign=top;childLayout=stackLayout;horizontal=1;startSize=26;horizontalStack=0;resizeParent=1;resizeParentMax=0;resizeLast=0;collapsible=1;marginBottom=0;sketch=1;fontSize=12;" vertex="1" parent="1">
          <mxGeometry x="120" y="704" width="160" height="112" as="geometry" />
        </mxCell>
        <mxCell id="wgKTrTO6_7ycH0h-UZkH-95" value="" style="line;strokeWidth=1;fillColor=none;align=left;verticalAlign=middle;spacingTop=-1;spacingLeft=3;spacingRight=3;rotatable=0;labelPosition=right;points=[];portConstraint=eastwest;sketch=1;fontSize=12;" vertex="1" parent="wgKTrTO6_7ycH0h-UZkH-93">
          <mxGeometry y="26" width="160" height="24" as="geometry" />
        </mxCell>
        <mxCell id="wgKTrTO6_7ycH0h-UZkH-96" value="+ GetDosage(): int&#xa;+ GetFeedSchedule(): int" style="text;strokeColor=none;fillColor=none;align=left;verticalAlign=top;spacingLeft=4;spacingRight=4;overflow=hidden;rotatable=0;points=[[0,0.5],[1,0.5]];portConstraint=eastwest;sketch=1;fontSize=12;" vertex="1" parent="wgKTrTO6_7ycH0h-UZkH-93">
          <mxGeometry y="50" width="160" height="62" as="geometry" />
        </mxCell>
        <mxCell id="wgKTrTO6_7ycH0h-UZkH-97" value="Felidae" style="swimlane;fontStyle=1;align=center;verticalAlign=top;childLayout=stackLayout;horizontal=1;startSize=26;horizontalStack=0;resizeParent=1;resizeParentMax=0;resizeLast=0;collapsible=1;marginBottom=0;sketch=1;fontSize=12;" vertex="1" parent="1">
          <mxGeometry x="520" y="704" width="160" height="112" as="geometry" />
        </mxCell>
        <mxCell id="wgKTrTO6_7ycH0h-UZkH-98" value="" style="line;strokeWidth=1;fillColor=none;align=left;verticalAlign=middle;spacingTop=-1;spacingLeft=3;spacingRight=3;rotatable=0;labelPosition=right;points=[];portConstraint=eastwest;sketch=1;fontSize=12;" vertex="1" parent="wgKTrTO6_7ycH0h-UZkH-97">
          <mxGeometry y="26" width="160" height="24" as="geometry" />
        </mxCell>
        <mxCell id="wgKTrTO6_7ycH0h-UZkH-99" value="+ GetDosage(): int&#xa;+ GetFeedSchedule(): int" style="text;strokeColor=none;fillColor=none;align=left;verticalAlign=top;spacingLeft=4;spacingRight=4;overflow=hidden;rotatable=0;points=[[0,0.5],[1,0.5]];portConstraint=eastwest;sketch=1;fontSize=12;" vertex="1" parent="wgKTrTO6_7ycH0h-UZkH-97">
          <mxGeometry y="50" width="160" height="62" as="geometry" />
        </mxCell>
        <mxCell id="wgKTrTO6_7ycH0h-UZkH-100" value="rodents" style="swimlane;fontStyle=1;align=center;verticalAlign=top;childLayout=stackLayout;horizontal=1;startSize=26;horizontalStack=0;resizeParent=1;resizeParentMax=0;resizeLast=0;collapsible=1;marginBottom=0;sketch=1;fontSize=12;" vertex="1" parent="1">
          <mxGeometry x="-280" y="704" width="160" height="112" as="geometry" />
        </mxCell>
        <mxCell id="wgKTrTO6_7ycH0h-UZkH-101" value="" style="line;strokeWidth=1;fillColor=none;align=left;verticalAlign=middle;spacingTop=-1;spacingLeft=3;spacingRight=3;rotatable=0;labelPosition=right;points=[];portConstraint=eastwest;sketch=1;fontSize=12;" vertex="1" parent="wgKTrTO6_7ycH0h-UZkH-100">
          <mxGeometry y="26" width="160" height="24" as="geometry" />
        </mxCell>
        <mxCell id="wgKTrTO6_7ycH0h-UZkH-102" value="+ GetDosage(): int&#xa;+ GetFeedSchedule(): int" style="text;strokeColor=none;fillColor=none;align=left;verticalAlign=top;spacingLeft=4;spacingRight=4;overflow=hidden;rotatable=0;points=[[0,0.5],[1,0.5]];portConstraint=eastwest;sketch=1;fontSize=12;" vertex="1" parent="wgKTrTO6_7ycH0h-UZkH-100">
          <mxGeometry y="50" width="160" height="62" as="geometry" />
        </mxCell>
        <mxCell id="wgKTrTO6_7ycH0h-UZkH-103" value="Zebra" style="swimlane;fontStyle=1;align=center;verticalAlign=top;childLayout=stackLayout;horizontal=1;startSize=26;horizontalStack=0;resizeParent=1;resizeParentMax=0;resizeLast=0;collapsible=1;marginBottom=0;sketch=1;fontSize=12;" vertex="1" parent="1">
          <mxGeometry x="320" y="894" width="160" height="112" as="geometry" />
        </mxCell>
        <mxCell id="wgKTrTO6_7ycH0h-UZkH-104" value="" style="line;strokeWidth=1;fillColor=none;align=left;verticalAlign=middle;spacingTop=-1;spacingLeft=3;spacingRight=3;rotatable=0;labelPosition=right;points=[];portConstraint=eastwest;sketch=1;fontSize=12;" vertex="1" parent="wgKTrTO6_7ycH0h-UZkH-103">
          <mxGeometry y="26" width="160" height="24" as="geometry" />
        </mxCell>
        <mxCell id="wgKTrTO6_7ycH0h-UZkH-105" value="+ GetDosage(): int&#xa;+ GetFeedSchedule(): int&#xa;+ RearUp(): void" style="text;strokeColor=none;fillColor=none;align=left;verticalAlign=top;spacingLeft=4;spacingRight=4;overflow=hidden;rotatable=0;points=[[0,0.5],[1,0.5]];portConstraint=eastwest;sketch=1;fontSize=12;" vertex="1" parent="wgKTrTO6_7ycH0h-UZkH-103">
          <mxGeometry y="50" width="160" height="62" as="geometry" />
        </mxCell>
        <mxCell id="wgKTrTO6_7ycH0h-UZkH-106" value="Donkey" style="swimlane;fontStyle=1;align=center;verticalAlign=top;childLayout=stackLayout;horizontal=1;startSize=26;horizontalStack=0;resizeParent=1;resizeParentMax=0;resizeLast=0;collapsible=1;marginBottom=0;sketch=1;fontSize=12;" vertex="1" parent="1">
          <mxGeometry x="120" y="894" width="160" height="110" as="geometry" />
        </mxCell>
        <mxCell id="wgKTrTO6_7ycH0h-UZkH-146" value="+ friendName: string" style="text;strokeColor=none;fillColor=none;align=left;verticalAlign=top;spacingLeft=4;spacingRight=4;overflow=hidden;rotatable=0;points=[[0,0.5],[1,0.5]];portConstraint=eastwest;sketch=1;fontSize=12;" vertex="1" parent="wgKTrTO6_7ycH0h-UZkH-106">
          <mxGeometry y="26" width="160" height="24" as="geometry" />
        </mxCell>
        <mxCell id="wgKTrTO6_7ycH0h-UZkH-107" value="" style="line;strokeWidth=1;fillColor=none;align=left;verticalAlign=middle;spacingTop=-1;spacingLeft=3;spacingRight=3;rotatable=0;labelPosition=right;points=[];portConstraint=eastwest;sketch=1;fontSize=12;" vertex="1" parent="wgKTrTO6_7ycH0h-UZkH-106">
          <mxGeometry y="50" width="160" height="4" as="geometry" />
        </mxCell>
        <mxCell id="wgKTrTO6_7ycH0h-UZkH-108" value="+ GetDosage(): int&#xa;+ GetFeedSchedule(): int&#xa;+ RearUp(): void" style="text;strokeColor=none;fillColor=none;align=left;verticalAlign=top;spacingLeft=4;spacingRight=4;overflow=hidden;rotatable=0;points=[[0,0.5],[1,0.5]];portConstraint=eastwest;sketch=1;fontSize=12;" vertex="1" parent="wgKTrTO6_7ycH0h-UZkH-106">
          <mxGeometry y="54" width="160" height="56" as="geometry" />
        </mxCell>
        <mxCell id="wgKTrTO6_7ycH0h-UZkH-109" value="Horse" style="swimlane;fontStyle=1;align=center;verticalAlign=top;childLayout=stackLayout;horizontal=1;startSize=26;horizontalStack=0;resizeParent=1;resizeParentMax=0;resizeLast=0;collapsible=1;marginBottom=0;sketch=1;fontSize=12;" vertex="1" parent="1">
          <mxGeometry x="-80" y="894" width="160" height="112" as="geometry" />
        </mxCell>
        <mxCell id="wgKTrTO6_7ycH0h-UZkH-148" value="+ ostlerName: string&#xa;" style="text;strokeColor=none;fillColor=none;align=left;verticalAlign=top;spacingLeft=4;spacingRight=4;overflow=hidden;rotatable=0;points=[[0,0.5],[1,0.5]];portConstraint=eastwest;sketch=1;fontSize=12;" vertex="1" parent="wgKTrTO6_7ycH0h-UZkH-109">
          <mxGeometry y="26" width="160" height="24" as="geometry" />
        </mxCell>
        <mxCell id="wgKTrTO6_7ycH0h-UZkH-110" value="" style="line;strokeWidth=1;fillColor=none;align=left;verticalAlign=middle;spacingTop=-1;spacingLeft=3;spacingRight=3;rotatable=0;labelPosition=right;points=[];portConstraint=eastwest;sketch=1;fontSize=12;" vertex="1" parent="wgKTrTO6_7ycH0h-UZkH-109">
          <mxGeometry y="50" width="160" height="10" as="geometry" />
        </mxCell>
        <mxCell id="wgKTrTO6_7ycH0h-UZkH-111" value="+ GetDosage(): int&#xa;+ GetFeedSchedule(): int&#xa;+ RearUp(): void&#xa;" style="text;strokeColor=none;fillColor=none;align=left;verticalAlign=top;spacingLeft=4;spacingRight=4;overflow=hidden;rotatable=0;points=[[0,0.5],[1,0.5]];portConstraint=eastwest;sketch=1;fontSize=12;" vertex="1" parent="wgKTrTO6_7ycH0h-UZkH-109">
          <mxGeometry y="60" width="160" height="52" as="geometry" />
        </mxCell>
        <mxCell id="wgKTrTO6_7ycH0h-UZkH-112" value="beaver" style="swimlane;fontStyle=1;align=center;verticalAlign=top;childLayout=stackLayout;horizontal=1;startSize=26;horizontalStack=0;resizeParent=1;resizeParentMax=0;resizeLast=0;collapsible=1;marginBottom=0;sketch=1;fontSize=12;" vertex="1" parent="1">
          <mxGeometry x="-280" y="894" width="160" height="112" as="geometry" />
        </mxCell>
        <mxCell id="wgKTrTO6_7ycH0h-UZkH-113" value="" style="line;strokeWidth=1;fillColor=none;align=left;verticalAlign=middle;spacingTop=-1;spacingLeft=3;spacingRight=3;rotatable=0;labelPosition=right;points=[];portConstraint=eastwest;sketch=1;fontSize=12;" vertex="1" parent="wgKTrTO6_7ycH0h-UZkH-112">
          <mxGeometry y="26" width="160" height="24" as="geometry" />
        </mxCell>
        <mxCell id="wgKTrTO6_7ycH0h-UZkH-114" value="+ GetDosage(): int&#xa;+ GetFeedSchedule(): int" style="text;strokeColor=none;fillColor=none;align=left;verticalAlign=top;spacingLeft=4;spacingRight=4;overflow=hidden;rotatable=0;points=[[0,0.5],[1,0.5]];portConstraint=eastwest;sketch=1;fontSize=12;" vertex="1" parent="wgKTrTO6_7ycH0h-UZkH-112">
          <mxGeometry y="50" width="160" height="62" as="geometry" />
        </mxCell>
        <mxCell id="wgKTrTO6_7ycH0h-UZkH-115" value="Mouse" style="swimlane;fontStyle=1;align=center;verticalAlign=top;childLayout=stackLayout;horizontal=1;startSize=26;horizontalStack=0;resizeParent=1;resizeParentMax=0;resizeLast=0;collapsible=1;marginBottom=0;sketch=1;fontSize=12;" vertex="1" parent="1">
          <mxGeometry x="-480" y="894" width="160" height="112" as="geometry" />
        </mxCell>
        <mxCell id="wgKTrTO6_7ycH0h-UZkH-116" value="" style="line;strokeWidth=1;fillColor=none;align=left;verticalAlign=middle;spacingTop=-1;spacingLeft=3;spacingRight=3;rotatable=0;labelPosition=right;points=[];portConstraint=eastwest;sketch=1;fontSize=12;" vertex="1" parent="wgKTrTO6_7ycH0h-UZkH-115">
          <mxGeometry y="26" width="160" height="24" as="geometry" />
        </mxCell>
        <mxCell id="wgKTrTO6_7ycH0h-UZkH-117" value="+ GetDosage(): int&#xa;+ GetFeedSchedule(): int" style="text;strokeColor=none;fillColor=none;align=left;verticalAlign=top;spacingLeft=4;spacingRight=4;overflow=hidden;rotatable=0;points=[[0,0.5],[1,0.5]];portConstraint=eastwest;sketch=1;fontSize=12;" vertex="1" parent="wgKTrTO6_7ycH0h-UZkH-115">
          <mxGeometry y="50" width="160" height="62" as="geometry" />
        </mxCell>
        <mxCell id="wgKTrTO6_7ycH0h-UZkH-118" value="Lion" style="swimlane;fontStyle=1;align=center;verticalAlign=top;childLayout=stackLayout;horizontal=1;startSize=26;horizontalStack=0;resizeParent=1;resizeParentMax=0;resizeLast=0;collapsible=1;marginBottom=0;sketch=1;fontSize=12;" vertex="1" parent="1">
          <mxGeometry x="520" y="894" width="160" height="112" as="geometry" />
        </mxCell>
        <mxCell id="wgKTrTO6_7ycH0h-UZkH-119" value="" style="line;strokeWidth=1;fillColor=none;align=left;verticalAlign=middle;spacingTop=-1;spacingLeft=3;spacingRight=3;rotatable=0;labelPosition=right;points=[];portConstraint=eastwest;sketch=1;fontSize=12;" vertex="1" parent="wgKTrTO6_7ycH0h-UZkH-118">
          <mxGeometry y="26" width="160" height="24" as="geometry" />
        </mxCell>
        <mxCell id="wgKTrTO6_7ycH0h-UZkH-120" value="+ GetDosage(): int&#xa;+ GetFeedSchedule(): int&#xa;+ Hunt(): void&#xa;" style="text;strokeColor=none;fillColor=none;align=left;verticalAlign=top;spacingLeft=4;spacingRight=4;overflow=hidden;rotatable=0;points=[[0,0.5],[1,0.5]];portConstraint=eastwest;sketch=1;fontSize=12;" vertex="1" parent="wgKTrTO6_7ycH0h-UZkH-118">
          <mxGeometry y="50" width="160" height="62" as="geometry" />
        </mxCell>
        <mxCell id="wgKTrTO6_7ycH0h-UZkH-121" value="Tiger" style="swimlane;fontStyle=1;align=center;verticalAlign=top;childLayout=stackLayout;horizontal=1;startSize=26;horizontalStack=0;resizeParent=1;resizeParentMax=0;resizeLast=0;collapsible=1;marginBottom=0;sketch=1;fontSize=12;" vertex="1" parent="1">
          <mxGeometry x="720" y="894" width="160" height="112" as="geometry" />
        </mxCell>
        <mxCell id="wgKTrTO6_7ycH0h-UZkH-122" value="" style="line;strokeWidth=1;fillColor=none;align=left;verticalAlign=middle;spacingTop=-1;spacingLeft=3;spacingRight=3;rotatable=0;labelPosition=right;points=[];portConstraint=eastwest;sketch=1;fontSize=12;" vertex="1" parent="wgKTrTO6_7ycH0h-UZkH-121">
          <mxGeometry y="26" width="160" height="24" as="geometry" />
        </mxCell>
        <mxCell id="wgKTrTO6_7ycH0h-UZkH-123" value="+ GetDosage(): int&#xa;+ GetFeedSchedule(): int&#xa;+ Hunt(): void" style="text;strokeColor=none;fillColor=none;align=left;verticalAlign=top;spacingLeft=4;spacingRight=4;overflow=hidden;rotatable=0;points=[[0,0.5],[1,0.5]];portConstraint=eastwest;sketch=1;fontSize=12;" vertex="1" parent="wgKTrTO6_7ycH0h-UZkH-121">
          <mxGeometry y="50" width="160" height="62" as="geometry" />
        </mxCell>
        <mxCell id="wgKTrTO6_7ycH0h-UZkH-124" value="Cat" style="swimlane;fontStyle=1;align=center;verticalAlign=top;childLayout=stackLayout;horizontal=1;startSize=26;horizontalStack=0;resizeParent=1;resizeParentMax=0;resizeLast=0;collapsible=1;marginBottom=0;sketch=1;fontSize=12;" vertex="1" parent="1">
          <mxGeometry x="920" y="894" width="160" height="112" as="geometry" />
        </mxCell>
        <mxCell id="wgKTrTO6_7ycH0h-UZkH-125" value="" style="line;strokeWidth=1;fillColor=none;align=left;verticalAlign=middle;spacingTop=-1;spacingLeft=3;spacingRight=3;rotatable=0;labelPosition=right;points=[];portConstraint=eastwest;sketch=1;fontSize=12;" vertex="1" parent="wgKTrTO6_7ycH0h-UZkH-124">
          <mxGeometry y="26" width="160" height="24" as="geometry" />
        </mxCell>
        <mxCell id="wgKTrTO6_7ycH0h-UZkH-126" value="+ GetDosage(): int&#xa;+ GetFeedSchedule(): int&#xa;+ Hunt(): void" style="text;strokeColor=none;fillColor=none;align=left;verticalAlign=top;spacingLeft=4;spacingRight=4;overflow=hidden;rotatable=0;points=[[0,0.5],[1,0.5]];portConstraint=eastwest;sketch=1;fontSize=12;" vertex="1" parent="wgKTrTO6_7ycH0h-UZkH-124">
          <mxGeometry y="50" width="160" height="62" as="geometry" />
        </mxCell>
        <mxCell id="wgKTrTO6_7ycH0h-UZkH-129" value="Extends" style="endArrow=block;endSize=16;endFill=0;html=1;sketch=1;fontSize=12;exitX=0.5;exitY=0;exitDx=0;exitDy=0;" edge="1" parent="1" source="wgKTrTO6_7ycH0h-UZkH-106" target="wgKTrTO6_7ycH0h-UZkH-96">
          <mxGeometry width="160" relative="1" as="geometry">
            <mxPoint x="190" y="864" as="sourcePoint" />
            <mxPoint x="350" y="864" as="targetPoint" />
          </mxGeometry>
        </mxCell>
        <mxCell id="wgKTrTO6_7ycH0h-UZkH-130" value="Extends" style="endArrow=block;endSize=16;endFill=0;html=1;sketch=1;fontSize=12;exitX=0.5;exitY=0;exitDx=0;exitDy=0;" edge="1" parent="1" source="wgKTrTO6_7ycH0h-UZkH-103" target="wgKTrTO6_7ycH0h-UZkH-96">
          <mxGeometry width="160" relative="1" as="geometry">
            <mxPoint x="100" y="1104" as="sourcePoint" />
            <mxPoint x="250" y="1124" as="targetPoint" />
          </mxGeometry>
        </mxCell>
        <mxCell id="wgKTrTO6_7ycH0h-UZkH-131" value="Extends" style="endArrow=block;endSize=16;endFill=0;html=1;sketch=1;fontSize=12;exitX=0.5;exitY=0;exitDx=0;exitDy=0;" edge="1" parent="1" source="wgKTrTO6_7ycH0h-UZkH-118" target="wgKTrTO6_7ycH0h-UZkH-99">
          <mxGeometry width="160" relative="1" as="geometry">
            <mxPoint x="100" y="1134" as="sourcePoint" />
            <mxPoint x="260" y="1134" as="targetPoint" />
          </mxGeometry>
        </mxCell>
        <mxCell id="wgKTrTO6_7ycH0h-UZkH-132" value="Extends" style="endArrow=block;endSize=16;endFill=0;html=1;sketch=1;fontSize=12;exitX=0.5;exitY=0;exitDx=0;exitDy=0;" edge="1" parent="1" source="wgKTrTO6_7ycH0h-UZkH-109" target="wgKTrTO6_7ycH0h-UZkH-96">
          <mxGeometry width="160" relative="1" as="geometry">
            <mxPoint x="110" y="1144" as="sourcePoint" />
            <mxPoint x="270" y="1144" as="targetPoint" />
          </mxGeometry>
        </mxCell>
        <mxCell id="wgKTrTO6_7ycH0h-UZkH-133" value="Extends" style="endArrow=block;endSize=16;endFill=0;html=1;sketch=1;fontSize=12;exitX=0.5;exitY=0;exitDx=0;exitDy=0;" edge="1" parent="1" source="wgKTrTO6_7ycH0h-UZkH-112" target="wgKTrTO6_7ycH0h-UZkH-102">
          <mxGeometry width="160" relative="1" as="geometry">
            <mxPoint x="120" y="1154" as="sourcePoint" />
            <mxPoint x="280" y="1154" as="targetPoint" />
          </mxGeometry>
        </mxCell>
        <mxCell id="wgKTrTO6_7ycH0h-UZkH-134" value="Extends" style="endArrow=block;endSize=16;endFill=0;html=1;sketch=1;fontSize=12;exitX=0.5;exitY=0;exitDx=0;exitDy=0;" edge="1" parent="1" source="wgKTrTO6_7ycH0h-UZkH-115" target="wgKTrTO6_7ycH0h-UZkH-102">
          <mxGeometry width="160" relative="1" as="geometry">
            <mxPoint x="-150" y="864" as="sourcePoint" />
            <mxPoint x="10" y="864" as="targetPoint" />
          </mxGeometry>
        </mxCell>
        <mxCell id="wgKTrTO6_7ycH0h-UZkH-135" value="Extends" style="endArrow=block;endSize=16;endFill=0;html=1;sketch=1;fontSize=12;edgeStyle=orthogonalEdgeStyle;exitX=0.5;exitY=0;exitDx=0;exitDy=0;" edge="1" parent="1" source="wgKTrTO6_7ycH0h-UZkH-97" target="wgKTrTO6_7ycH0h-UZkH-92">
          <mxGeometry width="160" relative="1" as="geometry">
            <mxPoint x="420" y="604" as="sourcePoint" />
            <mxPoint x="200" y="654" as="targetPoint" />
          </mxGeometry>
        </mxCell>
        <mxCell id="wgKTrTO6_7ycH0h-UZkH-136" value="Extends" style="endArrow=block;endSize=16;endFill=0;html=1;sketch=1;fontSize=12;edgeStyle=orthogonalEdgeStyle;exitX=0.5;exitY=0;exitDx=0;exitDy=0;entryX=0.513;entryY=1.016;entryDx=0;entryDy=0;entryPerimeter=0;" edge="1" parent="1" source="wgKTrTO6_7ycH0h-UZkH-93" target="wgKTrTO6_7ycH0h-UZkH-92">
          <mxGeometry width="160" relative="1" as="geometry">
            <mxPoint x="310" y="664" as="sourcePoint" />
            <mxPoint x="320" y="684" as="targetPoint" />
          </mxGeometry>
        </mxCell>
        <mxCell id="wgKTrTO6_7ycH0h-UZkH-137" value="Extends" style="endArrow=block;endSize=16;endFill=0;html=1;sketch=1;fontSize=12;exitX=0.5;exitY=0;exitDx=0;exitDy=0;edgeStyle=orthogonalEdgeStyle;" edge="1" parent="1" source="wgKTrTO6_7ycH0h-UZkH-100" target="wgKTrTO6_7ycH0h-UZkH-92">
          <mxGeometry width="160" relative="1" as="geometry">
            <mxPoint x="-190" y="624" as="sourcePoint" />
            <mxPoint x="-30" y="624" as="targetPoint" />
          </mxGeometry>
        </mxCell>
        <mxCell id="wgKTrTO6_7ycH0h-UZkH-138" value="Extends" style="endArrow=block;endSize=16;endFill=0;html=1;sketch=1;fontSize=12;exitX=0.5;exitY=0;exitDx=0;exitDy=0;" edge="1" parent="1" source="wgKTrTO6_7ycH0h-UZkH-121" target="wgKTrTO6_7ycH0h-UZkH-99">
          <mxGeometry width="160" relative="1" as="geometry">
            <mxPoint x="610" y="904" as="sourcePoint" />
            <mxPoint x="610" y="826" as="targetPoint" />
          </mxGeometry>
        </mxCell>
        <mxCell id="wgKTrTO6_7ycH0h-UZkH-141" value="Extends" style="endArrow=block;endSize=16;endFill=0;html=1;sketch=1;fontSize=12;exitX=0.5;exitY=0;exitDx=0;exitDy=0;" edge="1" parent="1" source="wgKTrTO6_7ycH0h-UZkH-124" target="wgKTrTO6_7ycH0h-UZkH-99">
          <mxGeometry width="160" relative="1" as="geometry">
            <mxPoint x="810" y="904" as="sourcePoint" />
            <mxPoint x="666.880733944954" y="826" as="targetPoint" />
          </mxGeometry>
        </mxCell>
      </root>
    </mxGraphModel>
  </diagram>
</mxfile>
